<svg width="292" height="292" viewBox="0 0 292 292" fill="none" xmlns="http://www.w3.org/2000/svg">
<path d="M103.195 87.9852C108.062 86.9422 120.868 85.2329 126.662 84.5087L130.138 82.3358V58L141.003 59.3037L149.259 56.2617L157.951 58L165.773 52.7852L167.946 77.9901C177.506 76.9761 197.757 74.6005 202.277 73.2099C206.796 71.8193 215.459 68.5745 219.225 67.1259L229.22 135.788C230.813 138.395 234 145.783 234 154.474C234 165.338 233.131 205.753 233.131 207.926C233.131 209.664 228.496 212.706 226.178 214.01C225.454 215.893 223.744 219.92 222.701 220.963C221.398 222.267 101.891 239.215 96.242 239.215C90.5926 239.215 80.5976 238.78 79.2939 236.608C77.9902 234.435 75.8173 184.894 75.8173 183.156C75.8173 181.417 70.1679 129.269 67.9951 118.84C66.2568 110.496 60.6074 102.905 58 100.153L67.9951 93.6346L66.6914 90.158C70.0231 90.3029 78.0771 90.5057 83.6395 90.158C90.5926 89.7235 97.1112 89.2889 103.195 87.9852Z" fill="white"/>
<path d="M87.0919 232.635C87.522 232.635 87.9344 232.464 88.2385 232.161C88.5426 231.858 88.7134 231.446 88.7134 231.017C88.7134 230.588 88.5426 230.176 88.2385 229.873C87.9344 229.57 87.522 229.399 87.0919 229.399C86.6619 229.399 86.2494 229.57 85.9453 229.873C85.6412 230.176 85.4704 230.588 85.4704 231.017C85.4704 231.446 85.6412 231.858 85.9453 232.161C86.2494 232.464 86.6619 232.635 87.0919 232.635Z" fill="#151718"/>
<path d="M133.169 68.0785C134.466 79.7789 135.47 91.4879 136.179 103.206C136.295 105.263 139.538 105.289 139.422 103.206C138.721 91.4879 137.718 79.7789 136.412 68.0785C136.192 66.0335 132.949 66.0076 133.169 68.0785Z" fill="#151718"/>
<path d="M139.538 104.914C140.67 103.544 141.887 102.247 143.184 101.031C143.486 100.726 143.655 100.314 143.655 99.8857C143.655 99.4569 143.486 99.0454 143.184 98.7403C142.875 98.4452 142.463 98.2805 142.036 98.2805C141.608 98.2805 141.197 98.4452 140.888 98.7403C139.595 99.9562 138.382 101.253 137.255 102.623C136.95 102.923 136.766 103.323 136.737 103.749C136.743 104.176 136.915 104.584 137.216 104.888C137.519 105.191 137.929 105.363 138.358 105.367C138.571 105.366 138.781 105.324 138.977 105.242C139.173 105.159 139.35 105.039 139.5 104.888L139.538 104.914Z" fill="#151718"/>
<path d="M141.822 101.161C142.392 101.29 142.963 101.445 143.521 101.627L144.247 101.885L144.663 102.041H144.572L144.779 102.131C145.816 102.572 146.807 103.114 147.737 103.749C148.112 103.959 148.554 104.016 148.97 103.908C149.387 103.799 149.744 103.533 149.968 103.167C150.172 102.793 150.225 102.356 150.116 101.945C150.008 101.533 149.746 101.179 149.384 100.953C147.366 99.537 145.087 98.534 142.678 98.0025C142.263 97.8986 141.825 97.9593 141.455 98.1718C141.084 98.3843 140.811 98.7319 140.693 99.1415C140.634 99.348 140.616 99.5642 140.641 99.7776C140.665 99.991 140.732 100.197 140.837 100.385C140.942 100.573 141.083 100.738 141.252 100.871C141.421 101.004 141.614 101.102 141.822 101.161Z" fill="#151718"/>
<path d="M150.202 103.154C150.657 102.381 151.159 101.638 151.706 100.928L151.46 101.251C151.965 100.6 152.506 99.9779 153.081 99.3874C153.245 99.2403 153.378 99.0613 153.47 98.8614C153.562 98.6615 153.613 98.445 153.618 98.225C153.624 98.005 153.584 97.7861 153.502 97.5819C153.42 97.3777 153.297 97.1923 153.141 97.0371C152.984 96.8819 152.798 96.7602 152.593 96.6794C152.387 96.5986 152.168 96.5605 151.947 96.5672C151.727 96.574 151.51 96.6256 151.31 96.7188C151.111 96.812 150.932 96.945 150.785 97.1094C149.478 98.4349 148.34 99.9174 147.4 101.523C147.186 101.896 147.127 102.339 147.236 102.755C147.345 103.171 147.613 103.528 147.983 103.749C148.357 103.955 148.796 104.01 149.21 103.902C149.623 103.793 149.978 103.53 150.202 103.167V103.154Z" fill="#151718"/>
<path d="M152.122 99.5686C152.48 99.5428 152.84 99.5428 153.198 99.5686H152.77C153.332 99.6496 153.881 99.8018 154.405 100.022L154.015 99.8533C154.51 100.074 154.98 100.348 155.416 100.669L155.079 100.41C155.345 100.617 155.596 100.842 155.832 101.083C156.135 101.383 156.546 101.552 156.973 101.552C157.401 101.552 157.811 101.383 158.115 101.083C158.413 100.778 158.579 100.37 158.579 99.9439C158.579 99.5183 158.413 99.1096 158.115 98.805C157.342 98.0004 156.411 97.3651 155.379 96.9395C154.347 96.5139 153.238 96.3073 152.122 96.3329C151.691 96.3329 151.279 96.5033 150.975 96.8067C150.671 97.1101 150.5 97.5216 150.5 97.9507C150.5 98.3798 150.671 98.7913 150.975 99.0947C151.279 99.3981 151.691 99.5686 152.122 99.5686Z" fill="#151718"/>
<path d="M158.789 100.746C159.942 99.9246 160.91 98.8708 161.63 97.653C161.739 97.47 161.811 97.267 161.84 97.0561C161.87 96.8451 161.857 96.6304 161.803 96.4244C161.749 96.2184 161.654 96.0252 161.524 95.8562C161.394 95.6871 161.232 95.5456 161.046 95.4398C160.853 95.3248 160.638 95.2516 160.414 95.2248C160.191 95.1981 159.964 95.2184 159.749 95.2845C159.355 95.3935 159.014 95.6419 158.789 95.9834C158.607 96.2876 158.408 96.5814 158.193 96.8635L158.452 96.527C158 97.1075 157.477 97.6292 156.895 98.0802L157.22 97.8343L157.116 97.9119C156.933 98.0116 156.778 98.1537 156.662 98.3261C156.524 98.4818 156.426 98.6683 156.376 98.8697C156.315 99.085 156.298 99.3102 156.325 99.5324C156.351 99.7545 156.422 99.9692 156.532 100.164C156.753 100.523 157.1 100.786 157.505 100.902L157.933 100.966C158.22 100.967 158.502 100.891 158.75 100.746H158.789Z" fill="#151718"/>
<path d="M160.826 98.4167H160.398C161.184 98.5181 161.952 98.7272 162.681 99.0379L162.292 98.8697C162.635 99.0127 162.968 99.177 163.291 99.3615C163.484 99.4765 163.699 99.5507 163.922 99.5796C164.145 99.6086 164.372 99.5916 164.588 99.5298C164.991 99.4169 165.335 99.1525 165.548 98.792C165.76 98.4193 165.818 97.9792 165.712 97.5642C165.606 97.1491 165.342 96.7913 164.977 96.5658C163.593 95.7906 162.058 95.3226 160.476 95.1939C160.259 95.187 160.043 95.2232 159.84 95.3005C159.638 95.3777 159.452 95.4944 159.295 95.6438C159.138 95.7932 159.013 95.9722 158.926 96.1705C158.839 96.3688 158.793 96.5824 158.789 96.7988C158.788 97.0131 158.83 97.2254 158.912 97.4232C158.995 97.621 159.116 97.8004 159.269 97.9507C159.583 98.2351 159.987 98.4001 160.411 98.4167H160.826Z" fill="#151718"/>
<path d="M165.924 97.6789C163.329 86.2374 163.459 74.4723 163.589 62.8107C163.589 62.3816 163.418 61.9701 163.114 61.6667C162.81 61.3633 162.397 61.1928 161.967 61.1928C161.537 61.1928 161.125 61.3633 160.821 61.6667C160.517 61.9701 160.346 62.3816 160.346 62.8107C160.203 74.77 160.151 86.8198 162.798 98.5461C163.265 100.578 166.391 99.711 165.924 97.6789Z" fill="#151718"/>
<path d="M160.437 61.827L156.545 67.276C156.431 67.4695 156.359 67.6843 156.332 67.907C156.305 68.1297 156.325 68.3555 156.389 68.5703C156.503 68.9729 156.768 69.3161 157.129 69.5281C157.5 69.7388 157.939 69.7971 158.353 69.6909C158.767 69.5846 159.124 69.322 159.347 68.9586L163.239 63.4967C163.352 63.3033 163.426 63.089 163.455 62.8667C163.484 62.6443 163.468 62.4184 163.407 62.2024C163.294 61.8037 163.035 61.462 162.681 61.2446C162.306 61.0415 161.868 60.9887 161.456 61.097C161.044 61.2052 160.688 61.4663 160.463 61.827H160.437Z" fill="#151718"/>
<path d="M158.439 66.8618L152.368 63.2637C151.995 63.0541 151.555 62.9978 151.141 63.1065C150.727 63.2152 150.371 63.4805 150.15 63.8461C149.94 64.2184 149.883 64.6576 149.992 65.0708C150.101 65.4839 150.367 65.8385 150.734 66.0594L156.804 69.6575C156.988 69.7646 157.192 69.8345 157.403 69.8631C157.614 69.8918 157.829 69.8788 158.035 69.8247C158.24 69.7706 158.434 69.6765 158.603 69.5479C158.773 69.4193 158.915 69.2586 159.023 69.0751C159.13 68.8915 159.2 68.6886 159.229 68.4781C159.258 68.2675 159.244 68.0533 159.19 67.8478C159.136 67.6423 159.042 67.4495 158.913 67.2803C158.784 67.1111 158.623 66.9689 158.439 66.8618Z" fill="#151718"/>
<path d="M149.709 63.7814C149.27 64.3064 148.879 64.8695 148.541 65.464C148.209 66.0592 147.931 66.6829 147.711 67.3278C147.649 67.5436 147.632 67.7697 147.661 67.9923C147.69 68.2149 147.764 68.4293 147.88 68.6221C148.092 68.9825 148.436 69.2469 148.84 69.3598C149.056 69.4216 149.283 69.4386 149.506 69.4097C149.729 69.3807 149.944 69.3065 150.137 69.1916C150.489 68.9694 150.751 68.6301 150.876 68.2338C150.943 68.0268 151.021 67.8238 151.11 67.6255L150.941 68.0138C151.252 67.2891 151.653 66.6064 152.134 65.9817L151.875 66.2147L152.018 66.0205C152.176 65.8827 152.293 65.7034 152.355 65.5028C152.453 65.3247 152.503 65.1237 152.498 64.9204C152.492 64.4892 152.32 64.0769 152.018 63.7685C151.714 63.4692 151.303 63.3018 150.876 63.3025C150.664 63.2977 150.453 63.3366 150.257 63.4168C150.06 63.497 149.883 63.6167 149.735 63.7685L149.709 63.7814Z" fill="#151718"/>
<path d="M150.059 66.6547L146.401 63.419C146.093 63.1229 145.686 62.9521 145.259 62.9401C144.827 62.9463 144.414 63.1177 144.105 63.419C143.806 63.7258 143.639 64.1367 143.639 64.5645C143.639 64.9922 143.806 65.4031 144.105 65.7099L147.763 68.9456C148.077 69.2379 148.488 69.4039 148.917 69.4116C149.344 69.4096 149.753 69.2426 150.059 68.9456C150.363 68.6387 150.535 68.2254 150.539 67.7937C150.535 67.366 150.362 66.9569 150.059 66.6547Z" fill="#151718"/>
<path d="M143.884 63.3543C142.026 64.3199 140.317 65.5494 138.812 67.0042C138.537 67.3132 138.39 67.7156 138.403 68.1289C138.416 68.5421 138.587 68.9348 138.881 69.2263C139.174 69.5179 139.569 69.6861 139.983 69.6965C140.397 69.7068 140.8 69.5586 141.108 69.2822C141.651 68.7636 142.223 68.2753 142.82 67.8196L142.483 68.0655C143.44 67.3625 144.455 66.7432 145.519 66.2147C145.888 65.9961 146.156 65.6415 146.265 65.2274C146.374 64.8133 146.316 64.373 146.102 64.0014C145.879 63.6383 145.523 63.3751 145.11 63.2666C144.697 63.1582 144.258 63.2127 143.884 63.419V63.3543Z" fill="#151718"/>
<path d="M141.03 67.1854C139.57 65.4958 137.875 64.0228 135.997 62.8107C135.625 62.5978 135.183 62.5395 134.768 62.6485C134.353 62.7575 133.998 63.0249 133.779 63.3931C133.569 63.7654 133.512 64.2046 133.621 64.6178C133.73 65.0309 133.996 65.3855 134.363 65.6064C134.873 65.9429 135.366 66.2923 135.841 66.6547L135.517 66.4088C136.691 67.3195 137.769 68.3473 138.734 69.4763C138.963 69.6988 139.251 69.8497 139.565 69.9103C139.878 69.971 140.202 69.9388 140.498 69.8176C140.793 69.6965 141.046 69.4918 141.226 69.2287C141.406 68.9657 141.505 68.6558 141.51 68.3373C141.492 67.9088 141.322 67.5006 141.03 67.1854Z" fill="#151718"/>
<path d="M133.558 64.2344C133.463 66.1156 133.498 68.0011 133.662 69.8775C133.676 70.3047 133.841 70.713 134.129 71.0295C134.44 71.3272 134.853 71.4941 135.284 71.4954C135.713 71.492 136.123 71.3205 136.426 71.0178C136.73 70.7151 136.902 70.3056 136.905 69.8775C136.741 68.0011 136.706 66.1156 136.801 64.2344C136.798 63.8064 136.626 63.3968 136.323 63.0942C136.019 62.7915 135.609 62.6199 135.18 62.6166C134.753 62.6264 134.346 62.8001 134.044 63.1013C133.742 63.4026 133.568 63.8084 133.558 64.2344Z" fill="#151718"/>
<path d="M136.114 85.875C116.373 92.594 95.5771 95.6984 74.7294 95.0386C72.6409 94.9739 72.6409 98.2096 74.7294 98.2743C95.8753 98.9416 116.969 95.7979 136.996 88.9942C138.955 88.3212 138.112 85.202 136.127 85.875H136.114Z" fill="#151718"/>
<path d="M72.9911 97.0706C76.4677 114.388 77.5963 132.017 78.9583 149.632C80.3204 167.247 81.6306 184.811 82.3311 202.439C82.7073 211.952 82.7981 221.569 85.4185 230.797C85.4756 231.002 85.5725 231.193 85.7038 231.361C85.8351 231.528 85.9981 231.668 86.1836 231.773C86.3691 231.877 86.5735 231.944 86.7849 231.97C86.9964 231.996 87.2109 231.98 87.4162 231.923C87.6215 231.866 87.8135 231.769 87.9813 231.638C88.1491 231.507 88.2894 231.345 88.3942 231.16C88.499 230.974 88.5663 230.771 88.5921 230.56C88.6179 230.349 88.6019 230.135 88.5448 229.93C86.2098 221.711 85.9504 213.104 85.665 204.678C85.3277 195.765 84.8607 186.856 84.264 177.951C83.1354 160.452 81.8771 143.005 80.2166 125.493C79.3581 115.67 77.9898 105.898 76.1174 96.2164C75.7023 94.1714 72.576 95.0386 72.9911 97.0706Z" fill="#151718"/>
<path d="M86.6898 232.428C94.8752 233.722 103.022 232.428 111 230.551C118.978 228.674 127.033 226.345 134.972 224.002C150.85 219.317 166.521 214.031 181.984 208.147C190.632 204.859 199.193 201.408 207.668 197.792C209.575 196.977 207.928 194.181 206.034 194.997C176.513 207.671 146.082 218.119 114.995 226.254C106.083 228.584 96.834 230.875 87.5589 229.36C85.5093 229.024 84.6402 232.143 86.6898 232.479V232.428Z" fill="#151718"/>
<path d="M206.19 197.559C207.748 199.127 209.422 200.577 211.197 201.895C213.043 203.495 215.191 204.709 217.514 205.468C221.406 206.412 224.169 203.824 225.298 200.394C225.84 198.555 226.183 196.663 226.322 194.751C226.651 192.041 226.915 189.336 227.114 186.636C227.477 181.64 227.654 176.639 227.646 171.635C227.646 151.12 224.805 130.748 221.549 110.531C219.72 99.1027 217.657 87.687 215.971 76.2325C215.659 74.1875 212.533 75.0547 212.844 77.0997C218.526 114.336 227.114 151.871 223.611 189.703C223.378 192.292 223.183 194.88 222.703 197.391C222.418 198.918 221.99 200.847 220.693 201.857C218.669 203.436 215.828 201.209 214.206 200.045C212.153 198.611 210.234 196.995 208.473 195.217C208.163 194.942 207.76 194.796 207.346 194.809C206.931 194.822 206.538 194.992 206.246 195.285C205.953 195.578 205.785 195.972 205.774 196.385C205.764 196.799 205.913 197.2 206.19 197.508V197.559Z" fill="#151718"/>
<path d="M214.064 74.4593C206.28 78.0575 198.043 79.0152 189.65 79.8436L163.809 82.4322C161.747 82.6393 161.721 85.875 163.809 85.6679L190.921 83.0017C199.509 82.1604 207.785 80.9696 215.698 77.3068C217.592 76.4137 215.945 73.631 214.064 74.5111V74.4593Z" fill="#151718"/>
<path d="M87.8184 232.803C106.836 234.253 125.697 230.59 144.273 227.005C163.394 223.329 182.619 220.417 201.948 218.087C208.992 217.246 219.162 217.116 222.119 209.182C222.183 208.942 222.19 208.69 222.141 208.447C222.092 208.203 221.988 207.974 221.836 207.776C221.685 207.579 221.49 207.419 221.267 207.308C221.044 207.197 220.799 207.139 220.55 207.137C193.595 210.204 166.856 214.929 140.485 221.284C133.039 223.087 125.624 225.02 118.238 227.082C117.824 227.197 117.472 227.472 117.26 227.846C117.048 228.219 116.994 228.662 117.11 229.075C117.225 229.489 117.5 229.84 117.875 230.051C118.249 230.262 118.693 230.316 119.107 230.202C144.995 222.98 171.305 217.361 197.887 213.376C205.429 212.237 212.983 211.24 220.55 210.386L218.993 208.341C217.878 211.331 214.699 212.664 211.82 213.415C207.929 214.228 203.991 214.79 200.028 215.097C190.947 216.197 181.945 217.401 172.916 218.76C154.755 221.517 136.801 225.71 118.601 228.247C108.416 229.777 98.0962 230.211 87.8184 229.541C85.7428 229.386 85.7428 232.622 87.8184 232.777V232.803Z" fill="#151718"/>
<path d="M146.894 225.167C169.777 218.048 194.346 219.679 217.164 212.353C218.812 211.823 218.643 208.962 216.736 209.169C203.323 210.593 189.987 212.556 176.73 215.058C174.68 215.447 175.549 218.566 177.586 218.19C190.558 215.74 203.608 213.82 216.736 212.431L216.308 209.26C193.477 216.586 168.908 214.955 146.038 222.073C144.053 222.695 144.896 225.827 146.894 225.193V225.167Z" fill="#151718"/>
<path d="M204.075 212.923C210.175 213.155 216.251 212.046 221.873 209.674C224.169 208.864 226.074 207.218 227.205 205.066C228.333 202.478 228.139 199.371 228.307 196.653C229.099 184.138 229.721 171.544 228.619 159.015C228.039 152.013 226.806 145.08 224.934 138.307C224.81 137.905 224.535 137.568 224.165 137.365C223.796 137.163 223.363 137.112 222.957 137.223C222.55 137.334 222.203 137.598 221.989 137.96C221.775 138.322 221.71 138.752 221.808 139.161C224.728 150.233 226.129 161.649 225.972 173.097C225.972 178.831 225.765 184.552 225.453 190.273C225.298 193.133 225.116 195.993 224.934 198.841C224.766 201.429 224.934 204.16 222.444 205.791C219.788 207.346 216.868 208.399 213.83 208.897C210.626 209.578 207.349 209.861 204.075 209.739C201.987 209.661 202 212.897 204.075 212.975V212.923Z" fill="#151718"/>
<path d="M74.6516 97.4848C84.3029 99.8663 94.3434 97.2777 103.891 95.5434L134.57 90.0297C136.62 89.6543 135.751 86.5351 133.714 86.9104L104.306 92.1911C94.992 93.8737 84.9515 96.6823 75.5337 94.3655C73.51 93.8737 72.6409 96.9541 74.6645 97.4848H74.6516Z" fill="#151718"/>
<path d="M72.8484 95.9834C75.0797 118.185 77.4536 140.373 79.9702 162.549C80.2037 164.594 83.4467 164.62 83.2132 162.549C80.6966 140.416 78.3227 118.228 76.0915 95.9834C75.8839 93.9255 72.6409 93.8996 72.8484 95.9834Z" fill="#151718"/>
<path d="M225.207 138.98L224.792 132.638C224.782 132.212 224.608 131.806 224.306 131.505C224.004 131.203 223.597 131.03 223.17 131.02C222.741 131.023 222.331 131.195 222.027 131.498C221.724 131.8 221.552 132.21 221.549 132.638L221.964 138.98C221.964 139.409 222.135 139.82 222.439 140.124C222.743 140.427 223.155 140.598 223.585 140.598C224.015 140.598 224.428 140.427 224.732 140.124C225.036 139.82 225.207 139.409 225.207 138.98Z" fill="#151718"/>
<path d="M74.6645 99.1027L67.9839 100.035C67.7815 100.089 67.5921 100.183 67.4271 100.312C67.2622 100.441 67.125 100.602 67.0239 100.785C66.9065 100.977 66.8308 101.192 66.8018 101.415C66.7727 101.637 66.791 101.864 66.8553 102.08C66.9679 102.486 67.2326 102.833 67.5947 103.05C67.9959 103.25 68.4528 103.309 68.8919 103.219L75.6245 102.274C76.0363 102.159 76.3859 101.886 76.5973 101.515C76.8087 101.144 76.8647 100.705 76.7531 100.293C76.6398 99.8838 76.3695 99.5351 76.0007 99.3227C75.6027 99.1124 75.1421 99.0527 74.7035 99.1544L74.6645 99.1027Z" fill="#151718"/>
<path d="M67.0758 102.895C70.2021 106.778 71.4864 111.644 72.2647 116.446C73.056 121.882 73.3025 127.396 73.8343 132.858C75.0278 144.938 76.6104 156.94 78.5822 168.865C79.6545 175.664 80.8782 182.434 82.2533 189.172C82.6684 191.217 85.7947 190.35 85.3796 188.318C82.8803 176.005 80.7961 163.619 79.127 151.159C78.3227 145.119 77.6179 139.019 77.0125 132.858C76.4677 127.279 76.1823 121.662 75.391 116.032C74.5997 110.402 72.9911 105.043 69.3719 100.604C68.0747 98.9862 65.7786 101.29 67.0758 102.895Z" fill="#151718"/>
<path d="M76.9736 112.136L75.6764 106.195C75.3132 104.552 74.47 102.196 72.3036 102.455L73.9251 104.073L73.8473 102.688C73.8439 102.26 73.672 101.85 73.3686 101.548C73.0653 101.245 72.6548 101.073 72.2258 101.07C71.7965 101.073 71.3851 101.242 71.0779 101.541C70.7708 101.84 70.5917 102.247 70.5783 102.675L70.6561 104.06C70.6561 104.849 71.3696 105.781 72.2777 105.678C72.6409 105.678 72.4204 105.678 72.1998 105.613C71.9793 105.548 71.8626 105.38 72.122 105.613C71.8885 105.393 72.122 105.613 72.122 105.691C72.122 105.768 72.2517 106.04 72.122 105.781C72.3555 106.506 72.4852 107.257 72.6539 108.007L73.7435 112.99C73.8676 113.392 74.1434 113.73 74.5125 113.932C74.8817 114.134 75.3152 114.185 75.7214 114.074C76.1276 113.963 76.4745 113.699 76.6889 113.337C76.9032 112.975 76.9681 112.545 76.8698 112.136H76.9736Z" fill="#151718"/>
<path d="M209.381 199.32L190.571 207.642C184.5 210.334 178.468 213.22 172.215 215.408C166.129 217.624 159.788 219.072 153.341 219.718C147.568 220.261 141.549 219.964 136.347 222.902C136.128 223.028 135.941 223.203 135.801 223.413C135.661 223.623 135.571 223.863 135.538 224.113C135.505 224.363 135.531 224.618 135.613 224.857C135.695 225.095 135.831 225.312 136.01 225.49C137.58 226.785 139.305 226.785 141.199 226.396C143.793 225.969 146.388 225.413 148.853 224.778C149.058 224.722 149.25 224.625 149.418 224.494C149.585 224.363 149.726 224.2 149.831 224.015C149.935 223.83 150.003 223.626 150.028 223.415C150.054 223.204 150.038 222.99 149.981 222.785C149.924 222.58 149.827 222.389 149.696 222.221C149.565 222.054 149.401 221.914 149.216 221.809C149.03 221.705 148.826 221.638 148.615 221.612C148.403 221.586 148.189 221.602 147.983 221.659C146.271 222.086 144.533 222.488 142.795 222.824C141.783 223.031 139.175 223.976 138.267 223.199L137.943 225.788C143.249 222.798 149.851 223.51 155.702 222.772C162.028 221.996 168.242 220.48 174.213 218.255C180.336 215.964 186.251 213.169 192.219 210.489L211.067 202.115C212.974 201.261 211.327 198.478 209.433 199.32H209.381Z" fill="#151718"/>
<path d="M154.432 125.67C147.226 125.615 138.872 128.917 135.007 135.259C134.043 136.852 133.551 138.68 133.586 140.537C133.621 142.393 134.181 144.203 135.203 145.758C137.3 149.135 140.783 151.224 144.157 153.151C144.532 153.369 144.979 153.431 145.4 153.322C145.821 153.214 146.181 152.944 146.401 152.572C146.621 152.2 146.683 151.757 146.574 151.34C146.464 150.923 146.192 150.566 145.817 150.348C143.065 148.778 140.052 147.101 138.25 144.46C137.357 143.275 136.874 141.836 136.874 140.357C136.874 138.879 137.357 137.44 138.25 136.255C141.788 131.341 148.536 128.873 154.432 128.917C154.867 128.917 155.283 128.746 155.591 128.441C155.898 128.137 156.07 127.724 156.07 127.293C156.07 126.862 155.898 126.45 155.591 126.145C155.283 125.841 154.867 125.67 154.432 125.67Z" fill="#151718"/>
<path d="M144.081 151.181C134.072 160.22 125.916 171.087 120.058 183.187C119.152 185.059 121.969 186.705 122.886 184.821C128.609 172.952 136.597 162.293 146.407 153.432C147.968 152.025 145.642 149.731 144.081 151.138V151.181Z" fill="#151718"/>
<path d="M120.091 184.832C121.035 186.4 122.313 187.745 123.836 188.772C124.218 188.986 124.668 189.044 125.092 188.934C125.503 188.816 125.853 188.55 126.075 188.188C126.187 188 126.26 187.793 126.288 187.577C126.316 187.361 126.299 187.141 126.239 186.932C126.11 186.533 125.843 186.192 125.485 185.969L124.983 185.601L125.332 185.86C124.62 185.313 123.981 184.676 123.432 183.966L123.684 184.302C123.411 183.956 123.159 183.595 122.93 183.219C122.709 182.857 122.358 182.59 121.947 182.473C121.522 182.366 121.071 182.428 120.692 182.646C120.322 182.848 120.047 183.186 119.927 183.587C119.818 184.008 119.877 184.454 120.091 184.832Z" fill="#151718"/>
<path d="M126.042 188.718C129.078 186.365 131.704 183.535 133.817 180.34C133.934 180.156 134.013 179.95 134.049 179.735C134.084 179.519 134.076 179.299 134.024 179.087C133.971 178.875 133.877 178.676 133.745 178.501C133.613 178.326 133.448 178.18 133.257 178.07C133.067 177.96 132.857 177.889 132.638 177.862C132.42 177.834 132.198 177.851 131.987 177.91C131.775 177.969 131.577 178.07 131.406 178.207C131.234 178.344 131.092 178.514 130.989 178.706C130.726 179.096 130.464 179.474 130.191 179.853C130.06 180.026 129.94 180.2 129.809 180.362L129.602 180.643C129.023 181.358 128.444 182.05 127.811 182.722C126.562 184.053 125.207 185.284 123.76 186.402C123.456 186.707 123.285 187.12 123.285 187.549C123.285 187.978 123.456 188.39 123.76 188.696C124.077 188.986 124.492 189.147 124.923 189.147C125.354 189.147 125.769 188.986 126.086 188.696L126.042 188.718Z" fill="#151718"/>
<path d="M131.098 181.065L134.133 182.505C135.096 183.059 136.118 183.505 137.18 183.836C137.646 183.958 138.135 183.968 138.607 183.867C139.079 183.766 139.519 183.557 139.894 183.255C140.268 182.954 140.566 182.569 140.762 182.132C140.958 181.695 141.048 181.218 141.023 180.741C140.986 179.886 140.693 179.061 140.183 178.37C139.91 177.959 138.709 176.866 138.85 176.325C138.85 176.411 138.85 176.325 139.069 176.249C139.292 176.232 139.516 176.266 139.724 176.346C140.598 176.789 141.437 177.295 142.235 177.862C143.001 178.344 143.899 178.578 144.805 178.532C145.711 178.485 146.58 178.16 147.291 177.602C148.711 176.314 148.503 174.203 147.706 172.645C147.165 171.931 146.725 171.148 146.396 170.317C146.336 170.142 146.336 169.952 146.396 169.776C146.396 169.776 146.21 169.776 146.396 169.863C147.684 170.285 148.711 171.27 150.152 171.194C152.39 171.086 153.264 168.889 152.926 166.973C152.438 164.824 151.344 162.857 149.77 161.301C148.328 159.764 146.014 162.07 147.455 163.596C148.568 164.691 149.354 166.069 149.726 167.579C149.803 168.001 149.65 167.98 149.988 167.958C149.661 167.958 149.038 167.514 148.689 167.33C148.124 166.945 147.47 166.71 146.788 166.645C146.106 166.581 145.418 166.69 144.791 166.962C144.12 167.387 143.603 168.013 143.316 168.749C143.03 169.485 142.988 170.292 143.196 171.053C143.407 171.802 143.739 172.511 144.179 173.153C144.496 173.64 145.173 174.409 145.075 175.047C145.075 175.307 144.911 175.351 144.474 175.275C143.786 175.071 143.149 174.724 142.607 174.257C141.979 173.757 141.247 173.4 140.463 173.213C139.68 173.026 138.864 173.013 138.075 173.175C137.299 173.37 136.621 173.839 136.171 174.495C135.72 175.152 135.527 175.949 135.629 176.736C135.778 177.665 136.178 178.537 136.787 179.258C137.056 179.577 137.304 179.913 137.529 180.265C137.475 180.167 137.78 180.849 137.759 180.838C137.737 180.827 138.075 180.838 137.988 180.687C137.797 180.603 137.6 180.535 137.398 180.481C136.907 180.275 136.437 180.016 135.968 179.788L132.692 178.251C130.803 177.342 129.143 180.135 131.043 181.055L131.098 181.065Z" fill="#151718"/>
<path d="M149.715 163.812L155.033 157.881C155.194 157.732 155.323 157.553 155.412 157.354C155.502 157.155 155.55 156.94 155.554 156.722C155.558 156.504 155.517 156.287 155.435 156.085C155.353 155.883 155.23 155.699 155.075 155.545C154.919 155.391 154.734 155.269 154.53 155.188C154.326 155.106 154.107 155.066 153.887 155.07C153.668 155.074 153.451 155.121 153.25 155.21C153.049 155.299 152.868 155.427 152.718 155.586L147.4 161.518C147.239 161.666 147.11 161.846 147.021 162.045C146.931 162.244 146.883 162.459 146.879 162.677C146.875 162.895 146.916 163.111 146.998 163.314C147.081 163.516 147.203 163.699 147.359 163.854C147.514 164.008 147.7 164.129 147.904 164.211C148.107 164.293 148.326 164.333 148.546 164.329C148.766 164.325 148.983 164.277 149.184 164.189C149.384 164.1 149.565 163.972 149.715 163.812Z" fill="#151718"/>
<path d="M153.209 157.221C155.078 158.616 157.232 159.589 159.52 160.071C161.808 160.552 164.175 160.532 166.454 160.009C168.734 159.487 170.87 158.477 172.713 157.049C174.556 155.621 176.061 153.81 177.123 151.744C181.578 142.76 177.723 132.261 169.184 127.304C166.576 125.828 163.697 124.884 160.715 124.527C157.734 124.17 154.71 124.407 151.823 125.226C151.436 125.369 151.118 125.65 150.931 126.014C150.743 126.377 150.7 126.798 150.81 127.192C150.919 127.586 151.174 127.924 151.523 128.142C151.872 128.359 152.291 128.438 152.696 128.365C160.897 126.135 170.222 129.263 174.207 137.024C177.712 143.843 175.114 153.487 167.59 156.355C165.622 157.149 163.482 157.435 161.371 157.185C159.261 156.935 157.249 156.158 155.524 154.926C153.886 153.649 151.55 155.933 153.209 157.221Z" fill="#151718"/>
<path d="M164.227 136.147C164.642 130.216 165.385 121.892 171.871 119.219C173.084 118.653 174.444 118.47 175.766 118.694C177.088 118.919 178.309 119.54 179.263 120.474C180.126 121.41 180.765 122.526 181.131 123.741C181.498 124.955 181.584 126.236 181.381 127.488C180.857 130.908 178.652 133.787 176.096 136.028C174.524 137.413 176.839 139.708 178.411 138.322C181.349 135.903 183.449 132.633 184.417 128.971C184.819 127.284 184.847 125.53 184.498 123.831C184.149 122.133 183.432 120.529 182.397 119.132C181.298 117.697 179.81 116.602 178.107 115.973C176.403 115.345 174.555 115.209 172.777 115.582C170.931 116.003 169.201 116.817 167.705 117.968C166.21 119.12 164.986 120.581 164.118 122.249C161.737 126.492 161.312 131.395 160.951 136.147C160.798 138.236 164.074 138.225 164.227 136.147Z" fill="#151718"/>
<path d="M160.984 131.244C158.516 130.356 155.601 129.663 153.34 131.384C151.08 133.105 151.102 136.234 152.532 138.561C155.044 142.674 160.897 145.217 165.526 143.193C168.136 142.035 169.796 138.712 168.093 136.136C167.866 135.773 167.507 135.51 167.091 135.401C166.674 135.293 166.232 135.346 165.854 135.552C165.481 135.771 165.211 136.126 165.1 136.541C164.99 136.956 165.049 137.398 165.264 137.77C165.264 137.77 165.483 138.171 165.417 138.019C165.417 138.084 165.516 138.474 165.494 138.279C165.52 138.539 165.49 138.801 165.406 139.048C165.275 139.338 165.086 139.598 164.849 139.812C164.612 140.026 164.334 140.19 164.031 140.292C162.554 140.788 160.947 140.746 159.499 140.173C158.031 139.665 156.737 138.757 155.765 137.554C155.33 137.004 155.008 136.375 154.815 135.703C154.718 135.399 154.696 135.076 154.749 134.761C154.788 134.542 154.891 134.339 155.044 134.177C155.249 133.995 155.481 133.845 155.732 133.733C156.078 133.593 156.451 133.53 156.824 133.549C157.982 133.626 159.118 133.909 160.176 134.383C160.596 134.493 161.042 134.436 161.42 134.223C161.798 134.011 162.076 133.66 162.196 133.246C162.301 132.83 162.241 132.39 162.028 132.017C161.814 131.644 161.464 131.367 161.05 131.244H160.984Z" fill="#151718"/>
</svg>
